<svg data-v-0dd9719b="" version="1.0" xmlns="http://www.w3.org/2000/svg" xmlns:xlink="http://www.w3.org/1999/xlink" width="100%" height="100%" viewBox="0 0 340.000000 250.000000" preserveAspectRatio="xMidYMid meet" color-interpolation-filters="sRGB" style="margin: auto;"> <rect data-v-0dd9719b="" x="0" y="0" width="100%" height="100%" fill="#fff" fill-opacity="1" class="background"></rect> <rect data-v-0dd9719b="" x="0" y="0" width="100%" height="100%" fill="url(#watermark)" fill-opacity="1" class="watermarklayer"></rect> <g data-v-0dd9719b="" fill="#333" class="icon-text-wrapper icon-svg-group iconsvg" transform="translate(48.939483642578125,88.69489288330078)"><g class="iconsvg-imagesvg" transform="translate(0,0)"><g><rect fill="#333" fill-opacity="0" stroke-width="2" x="0" y="0" width="60" height="72.61021625742742" class="image-rect"></rect> <svg x="0" y="0" width="60" height="72.61021625742742" filtersec="colorsb631860956" class="image-svg-svg primary" style="overflow: visible;"><svg xmlns="http://www.w3.org/2000/svg" viewBox="0 0 49.58000183105469 60"><path fill="#304c9c" d="M37.18 22.84L24.79 30l-12.4-7.16L0 15.69V30l24.79 14.31L49.58 30l-12.4-7.16z"></path><path fill="#dd3728" d="M24.79 0L0 14.31l12.39 7.16 12.4-7.16 12.39 7.16 12.4 7.15V14.31L24.79 0z"></path><path fill="#90c840" d="M49.58 31.38L24.79 45.69 0 31.38v14.31L24.79 60l24.79-14.31V31.38z"></path></svg></svg> <!----></g></g> <g transform="translate(67,12.358858108520508)"><g data-gra="path-name" fill-rule="" class="tp-name iconsvg-namesvg" transform="translate(0,0)"><g transform="scale(1)"><g><path d="M21.78 1.84Q20.95 2.88 20.02 2.16L20.02 2.16Q19.01 1.4 19.98 0.22L19.98 0.22Q22-2.63 22.79-6.84L22.79-6.84Q23.33-9.79 23.33-14.22L23.33-14.22 23.33-26.68Q23.33-27.61 23.9-28.19 24.48-28.76 25.42-28.76L25.42-28.76 31.1-28.76Q32.04-28.76 32.62-28.19 33.19-27.61 33.19-26.68L33.19-26.68 33.19-0.5Q33.19 0.54 32.92 1.1 32.65 1.66 31.97 1.98L31.97 1.98Q31 2.41 28.73 2.41L28.73 2.41Q27.25 2.41 26.96 1.51L26.96 1.51Q26.75 0.83 27.22 0.47L27.22 0.47Q27.61 0.14 28.48 0.18L28.48 0.18Q29.3 0.18 30.1 0.18L30.1 0.18Q30.74 0.14 30.74-0.54L30.74-0.54 30.74-9.14 25.45-9.14Q24.73-2.09 21.78 1.84L21.78 1.84ZM5.29 1.12Q4.75 2.38 3.49 1.62L3.49 1.62Q2.38 0.97 2.88-0.07L2.88-0.07Q3.85-2.02 4.82-4.28 5.8-6.55 6.8-9.14L6.8-9.14Q7.34-10.48 8.53-9.65L8.53-9.65Q9.4-9.07 9.07-8.1L9.07-8.1Q7.52-3.85 5.29 1.12L5.29 1.12ZM18.79-2.05L12.67-2.05Q11.74-2.05 11.16-2.63 10.58-3.2 10.58-4.14L10.58-4.14 10.58-11.59Q10.58-12.53 11.16-13.1 11.74-13.68 12.67-13.68L12.67-13.68 14.69-13.68 14.69-20.16 10.58-20.16Q9.36-20.16 9.36-21.42L9.36-21.42Q9.36-22.64 10.58-22.64L10.58-22.64 14.69-22.64 14.69-28.01Q14.69-29.2 15.91-29.2L15.91-29.2Q17.1-29.2 17.1-28.01L17.1-28.01 17.1-22.64 20.63-22.64Q21.85-22.64 21.85-21.42L21.85-21.42Q21.85-20.16 20.63-20.16L20.63-20.16 17.1-20.16 17.1-13.68 19.12-13.68Q19.94-13.68 20.41-13.21 20.88-12.74 20.88-11.92L20.88-11.92 20.88-4.14Q20.88-3.2 20.3-2.63 19.73-2.05 18.79-2.05L18.79-2.05ZM13.68-4.43L13.68-4.43 17.78-4.43Q18.54-4.43 18.54-5.18L18.54-5.18 18.54-10.58Q18.54-11.34 17.78-11.34L17.78-11.34 13.68-11.34Q12.92-11.34 12.92-10.58L12.92-10.58 12.92-5.18Q12.92-4.43 13.68-4.43ZM25.6-11.56L25.6-11.56 30.74-11.56 30.74-17.82 25.67-17.82 25.67-14.22Q25.67-12.46 25.6-11.56ZM8.35-15.77Q7.52-14.58 6.55-15.41L6.55-15.41Q6.08-15.77 4.91-16.49 3.74-17.21 2.92-17.6L2.92-17.6Q1.73-18.18 2.56-19.3L2.56-19.3Q3.13-20.09 4.03-19.73L4.03-19.73Q6.26-18.76 8.24-17.39L8.24-17.39Q9.07-16.74 8.35-15.77L8.35-15.77ZM25.67-25.6L25.67-20.23 30.74-20.23 30.74-25.6Q30.74-26.35 29.99-26.35L29.99-26.35 26.42-26.35Q25.67-26.35 25.67-25.6L25.67-25.6ZM9.65-25.13Q8.78-24.01 7.81-24.88L7.81-24.88Q7.02-25.52 6.34-25.99L6.34-25.99Q5.04-26.86 4.36-27.22L4.36-27.22Q3.2-27.83 4.07-28.91L4.07-28.91Q4.68-29.7 5.58-29.27L5.58-29.27Q7.99-28.04 9.58-26.71L9.58-26.71Q10.01-26.35 10.01-25.99L10.01-25.99Q10.01-25.63 9.65-25.13L9.65-25.13ZM49.07 2.41L49.07 2.41Q47.74 2.41 47.74 1.08L47.74 1.08 47.74-5.65Q42.26-3.28 39.92-2.3L39.92-2.3Q39.28-2.05 38.88-2.23 38.48-2.41 38.16-3.1L38.16-3.1Q37.8-3.89 37.91-4.25L37.91-4.25Q38.02-4.68 38.74-4.9L38.74-4.9Q40.57-5.54 45.14-7.31L45.14-7.31Q46.87-7.99 47.74-8.32L47.74-8.32 47.74-18.4 39.89-18.4Q38.59-18.4 38.59-19.73L38.59-19.73Q38.59-21.02 39.89-21.02L39.89-21.02 47.74-21.02 47.74-28.12Q47.74-29.45 49.07-29.45L49.07-29.45Q50.4-29.45 50.4-28.12L50.4-28.12 50.4 1.08Q50.4 2.41 49.07 2.41ZM66.31 1.94L60.59 1.94Q58.1 1.94 57.22 0.94 56.34-0.07 56.34-2.95L56.34-2.95 56.34-28.08Q56.34-29.41 57.71-29.41L57.71-29.41Q59.04-29.41 59.04-28.08L59.04-28.08 59.04-17.53Q63.76-20.38 66.85-23.08L66.85-23.08Q67.39-23.58 67.86-23.51L67.86-23.51Q68.29-23.44 68.81-22.82 69.34-22.21 69.32-21.74 69.3-21.28 68.69-20.81L68.69-20.81Q65.41-18.4 59.04-14.76L59.04-14.76 59.04-2.92Q59.04-1.51 59.38-1.1 59.72-0.68 60.88-0.68L60.88-0.68 66.13-0.68Q67.03-0.68 67.45-1.48 67.86-2.27 68.04-4.43L68.04-4.43Q68.11-5.72 68.51-6.62L68.51-6.62Q69.01-7.78 69.8-7.38L69.8-7.38Q70.27-7.13 70.49-6.19L70.49-6.19Q70.67-5.47 70.63-4.68L70.63-4.68Q70.34-0.97 69.44 0.43L69.44 0.43Q68.54 1.94 66.31 1.94L66.31 1.94ZM102.46 2.81L102.46 2.81Q95.33 2.77 93.82-18.9L93.82-18.9 75.49-18.9Q74.23-18.9 74.23-20.16 74.23-21.42 75.49-21.42L75.49-21.42 93.67-21.42Q93.46-25.99 93.42-28.62L93.42-28.62Q93.42-29.95 94.72-29.95L94.72-29.95Q96.05-29.95 96.05-28.58L96.05-28.58Q96.05-25.2 96.23-21.42L96.23-21.42 104.51-21.42Q105.77-21.42 105.77-20.16 105.77-18.9 104.51-18.9L104.51-18.9 96.37-18.9Q96.98-10.22 98.6-5.11L98.6-5.11Q100.3 0.18 102.67 0.18L102.67 0.18Q103.64 0.18 103.97-3.31L103.97-3.31Q104.04-4.5 104.44-5.22L104.44-5.22Q104.9-6.16 105.62-5.69L105.62-5.69Q106.02-5.44 106.16-4.57L106.16-4.57Q106.31-3.89 106.24-3.24L106.24-3.24Q105.88 0.22 105.05 1.51 104.22 2.81 102.46 2.81ZM75.49 2.02Q74.45 2.2 74.16 0.94L74.16 0.94Q73.84-0.4 75.2-0.61L75.2-0.61 77.04-0.9 77.04-13.72Q77.04-14.94 78.26-14.94L78.26-14.94Q79.49-14.94 79.49-13.72L79.49-13.72 79.49-1.33 83.66-2.09 83.66-16.38Q83.66-17.64 84.96-17.64L84.96-17.64Q86.22-17.64 86.22-16.38L86.22-16.38 86.22-12.64 91.15-12.64Q92.34-12.64 92.34-11.45L92.34-11.45Q92.34-10.22 91.15-10.22L91.15-10.22 86.22-10.22 86.22-2.48Q87.48-2.74 90.11-3.2L90.11-3.2Q91.4-3.46 92.05-3.56L92.05-3.56Q93.35-3.82 93.46-2.48L93.46-2.48Q93.56-1.33 92.38-1.12L92.38-1.12Q83.23 0.65 75.49 2.02L75.49 2.02ZM104.15-23.58Q103.18-22.79 102.46-23.65L102.46-23.65Q101.99-24.19 100.8-25.38L100.8-25.38Q99.72-26.46 98.82-27.22L98.82-27.22Q97.85-28.04 98.89-28.84L98.89-28.84Q99.65-29.38 100.37-28.84L100.37-28.84Q102.67-27.07 104.44-25.09L104.44-25.09Q104.83-24.66 104.72-24.3L104.72-24.3Q104.65-23.98 104.15-23.58L104.15-23.58ZM89.42-25.52L78.3-25.52Q77.11-25.52 77.11-26.75L77.11-26.75Q77.11-27.94 78.3-27.94L78.3-27.94 89.42-27.94Q90.61-27.94 90.61-26.75L90.61-26.75Q90.61-25.52 89.42-25.52L89.42-25.52ZM135.25 2.23L125.53 2.23Q122.08 2.23 120.89 1.4 119.7 0.58 119.7-1.84L119.7-1.84 119.7-9.43Q116.46-7.56 112.5-5.87L112.5-5.87Q111.35-5.36 110.59-6.3L110.59-6.3Q109.48-7.63 111.2-8.32L111.2-8.32Q118.12-11.12 124.24-15.37L124.24-15.37 111.38-15.37Q110.12-15.37 110.12-16.63 110.12-17.89 111.38-17.89L111.38-17.89 122.26-17.89 122.26-22.75 114.52-22.75Q113.26-22.75 113.26-24.01 113.26-25.27 114.52-25.27L114.52-25.27 122.26-25.27 122.26-28.8Q122.26-30.13 123.59-30.13L123.59-30.13Q124.92-30.13 124.92-28.8L124.92-28.8 124.92-25.27 132.19-25.27Q132.91-25.27 133.34-24.84 133.78-24.41 133.78-23.69L133.78-23.69 133.78-23.58Q136.15-26.32 137.23-27.76L137.23-27.76Q137.95-28.73 139.03-28.19L139.03-28.19Q140.36-27.54 139.46-26.35L139.46-26.35Q136.12-21.85 131.62-17.89L131.62-17.89 140.65-17.89Q141.91-17.89 141.91-16.63 141.91-15.37 140.65-15.37L140.65-15.37 128.59-15.37Q125.71-13.1 122.36-11.02L122.36-11.02 122.36-7.31Q129.78-9.25 134.42-11.45L134.42-11.45Q134.89-11.66 135.25-11.59L135.25-11.59Q135.54-11.52 136.01-11.12L136.01-11.12Q136.76-10.51 136.76-10.08 136.76-9.65 135.94-9.29L135.94-9.29Q130.25-6.91 122.36-5.04L122.36-5.04 122.36-1.84Q122.36-0.83 122.98-0.52 123.59-0.22 125.6-0.22L125.6-0.22 135.14-0.22Q136.4-0.22 136.98-0.61L136.98-0.61Q137.59-1.01 137.84-2.16L137.84-2.16Q137.99-3.28 138.38-3.96L138.38-3.96Q138.92-4.82 139.68-4.54L139.68-4.54Q140.18-4.36 140.4-3.53L140.4-3.53Q140.54-2.88 140.44-2.16L140.44-2.16Q140.04 0.43 138.96 1.33 137.88 2.23 135.25 2.23L135.25 2.23ZM124.92-22.75L124.92-17.89 127.66-17.89Q130.82-20.45 132.98-22.75L132.98-22.75 124.92-22.75ZM176 0.14L147.96 0.14Q146.63 0.14 146.63-1.22L146.63-1.22Q146.63-2.56 147.96-2.56L147.96-2.56 176-2.56Q177.34-2.56 177.34-1.22L177.34-1.22Q177.34 0.14 176 0.14L176 0.14ZM171.29-12.28L152.28-12.28Q150.95-12.28 150.95-13.64L150.95-13.64Q150.95-14.98 152.28-14.98L152.28-14.98 171.29-14.98Q172.62-14.98 172.62-13.64L172.62-13.64Q172.62-12.28 171.29-12.28L171.29-12.28ZM174.06-23.98L150.01-23.98Q148.68-23.98 148.68-25.31 148.68-26.64 150.01-26.64L150.01-26.64 174.06-26.64Q175.39-26.64 175.39-25.31 175.39-23.98 174.06-23.98L174.06-23.98Z" transform="translate(-2.2189602851867676, 30.1299991607666)"></path></g> <!----> <!----> <!----> <!----> <!----> <!----> <!----></g></g> <g data-gra="path-slogan" fill-rule="" class="tp-slogan iconsvg-slogansvg" fill="#333" transform="translate(5,38.939998626708984)"><rect x="0" height="1" y="3.9750003814697266" width="26.310516357421875"></rect> <rect height="1" y="3.9750003814697266" width="26.310516357421875" x="138.81051635742188"></rect> <g transform="translate(29.310516357421875,0)"><g transform="scale(1)"><path d="M2.06-5.06L6.56-5.06L6.56-8.58L7.73-8.58L7.73 0L6.56 0L6.56-3.98L2.06-3.98L2.06 0L0.89 0L0.89-8.58L2.06-8.58L2.06-5.06ZM15.19-3.19L15.19-8.58L16.36-8.58L16.36-3.05Q16.22 0.05 12.84 0.14L12.84 0.14Q9.70 0.05 9.56-2.86L9.56-2.86L9.56-8.58L10.73-8.58L10.73-3.19Q10.78-0.84 12.89-0.80L12.89-0.80Q15.19-0.84 15.19-3.19L15.19-3.19ZM21.38-7.64L19.31-7.64L19.31-4.97L21.38-4.97Q23.20-4.92 23.16-6.38L23.16-6.38Q23.16-7.64 21.38-7.64L21.38-7.64ZM21.84 0L18.14 0L18.14-8.58L21.94-8.58Q24.23-8.48 24.33-6.42L24.33-6.42Q24.33-5.16 23.20-4.64L23.20-4.64Q24.80-4.08 24.80-2.53L24.80-2.53Q24.66-0.09 21.84 0L21.84 0ZM21.56-3.98L19.31-3.98L19.31-0.98L21.80-0.98Q23.58-1.03 23.63-2.53L23.63-2.53Q23.63-3.98 21.56-3.98L21.56-3.98ZM27.42-1.03L32.58-1.03L32.58 0L26.25 0L26.25-8.58L32.48-8.58L32.48-7.59L27.42-7.59L27.42-4.92L32.11-4.92L32.11-3.89L27.42-3.89L27.42-1.03ZM34.27-8.58L35.44-8.58L35.44 0L34.27 0L34.27-8.58ZM45.52-7.13L45.47-7.13L43.50 0L42.28 0L40.03-8.58L41.25-8.58L42.89-1.59L42.94-1.59L44.86-8.58L46.13-8.58L48.05-1.59L48.09-1.59L49.69-8.58L50.95-8.58L48.70 0L47.48 0L45.52-7.13ZM57.70-3.19L57.70-8.58L58.88-8.58L58.88-3.05Q58.73 0.05 55.36 0.14L55.36 0.14Q52.22 0.05 52.08-2.86L52.08-2.86L52.08-8.58L53.25-8.58L53.25-3.19Q53.30-0.84 55.41-0.80L55.41-0.80Q57.70-0.84 57.70-3.19L57.70-3.19ZM60.66-8.58L61.83-8.58L61.83-1.03L66.19-1.03L66.19 0L60.66 0L60.66-8.58ZM72.98 0L72.14-2.48L68.67-2.48L67.78 0L66.61 0L69.84-8.58L71.16-8.58L74.25 0L72.98 0ZM70.41-7.31L69.05-3.52L71.72-3.52L70.45-7.31L70.41-7.31ZM82.08-4.27L82.08-4.27Q81.89-7.64 79.08-7.83L79.08-7.83Q76.22-7.69 76.08-4.27L76.08-4.27Q76.22-0.94 79.08-0.80L79.08-0.80Q81.89-0.98 82.08-4.27ZM83.25-4.27L83.25-4.27Q82.97 0 79.08 0.14L79.08 0.14Q75.14 0 74.86-4.27L74.86-4.27Q75.09-8.72 79.08-8.81L79.08-8.81Q82.97-8.67 83.25-4.27ZM90.89-6.09L90.89-6.09L89.81-6.09Q89.72-7.73 87.66-7.83L87.66-7.83Q85.73-7.78 85.73-6.33L85.73-6.33Q85.73-5.39 86.77-5.25L86.77-5.25L89.20-4.69Q91.13-4.22 91.13-2.34L91.13-2.34Q91.08 0.05 87.75 0.14L87.75 0.14Q85.92 0.14 85.17-0.61L85.17-0.61Q84.23-1.31 84.28-2.77L84.28-2.77L85.41-2.77Q85.45-0.80 87.75-0.75L87.75-0.75Q90-0.80 90.05-2.20L90.05-2.20Q90.23-3.38 88.17-3.75L88.17-3.75L86.39-4.13Q84.56-4.64 84.56-6.19L84.56-6.19Q84.70-8.72 87.56-8.81L87.56-8.81Q90.80-8.81 90.89-6.09ZM98.25 0L97.41-2.48L93.94-2.48L93.05 0L91.88 0L95.11-8.58L96.42-8.58L99.52 0L98.25 0ZM95.67-7.31L94.31-3.52L96.98-3.52L95.72-7.31L95.67-7.31ZM101.95-8.58L106.27-1.64L106.27-8.58L107.39-8.58L107.39 0L106.08 0L101.72-6.94L101.67-6.94L101.67 0L100.55 0L100.55-8.58L101.95-8.58Z" transform="translate(-0.890625, 8.8125)"></path></g></g></g></g></g><defs v-gra="od"></defs></svg>